<mxfile host="app.diagrams.net" modified="2023-09-13T14:46:22.469Z" agent="Mozilla/5.0 (Windows NT 10.0; Win64; x64) AppleWebKit/537.36 (KHTML, like Gecko) Chrome/116.0.0.0 Safari/537.36" etag="ktgnD8up0WSKtfzAK-zC" version="21.7.5" type="github">
  <diagram name="PÃ¡gina-1" id="sLxuqajCXeq4VcmaUZGw">
    <mxGraphModel dx="1834" dy="1150" grid="0" gridSize="10" guides="1" tooltips="1" connect="1" arrows="1" fold="1" page="0" pageScale="1" pageWidth="827" pageHeight="1169" math="0" shadow="0">
      <root>
        <mxCell id="0" />
        <mxCell id="1" parent="0" />
        <mxCell id="7lHJPegdZruPI4kEcz9y-1" value="Modulos" style="whiteSpace=wrap;html=1;align=center;" parent="1" vertex="1">
          <mxGeometry x="67" y="142" width="100" height="40" as="geometry" />
        </mxCell>
        <mxCell id="7lHJPegdZruPI4kEcz9y-2" value="Organizacion" style="whiteSpace=wrap;html=1;align=center;" parent="1" vertex="1">
          <mxGeometry x="312" y="142" width="100" height="40" as="geometry" />
        </mxCell>
        <mxCell id="7lHJPegdZruPI4kEcz9y-3" value="NombreFantasia" style="ellipse;whiteSpace=wrap;html=1;align=center;" parent="1" vertex="1">
          <mxGeometry x="229" y="36" width="100" height="40" as="geometry" />
        </mxCell>
        <mxCell id="7lHJPegdZruPI4kEcz9y-4" value="Lng" style="ellipse;whiteSpace=wrap;html=1;align=center;" parent="1" vertex="1">
          <mxGeometry x="406" y="-9" width="100" height="40" as="geometry" />
        </mxCell>
        <mxCell id="7lHJPegdZruPI4kEcz9y-5" value="Lat" style="ellipse;whiteSpace=wrap;html=1;align=center;" parent="1" vertex="1">
          <mxGeometry x="290" y="-12" width="100" height="40" as="geometry" />
        </mxCell>
        <mxCell id="7lHJPegdZruPI4kEcz9y-6" value="Zoom" style="ellipse;whiteSpace=wrap;html=1;align=center;" parent="1" vertex="1">
          <mxGeometry x="457" y="36" width="100" height="40" as="geometry" />
        </mxCell>
        <mxCell id="7lHJPegdZruPI4kEcz9y-7" value="Logo" style="ellipse;whiteSpace=wrap;html=1;align=center;" parent="1" vertex="1">
          <mxGeometry x="492" y="79" width="100" height="40" as="geometry" />
        </mxCell>
        <mxCell id="7lHJPegdZruPI4kEcz9y-8" value="" style="endArrow=none;html=1;rounded=0;exitX=0.5;exitY=0;exitDx=0;exitDy=0;entryX=0.5;entryY=1;entryDx=0;entryDy=0;" parent="1" source="7lHJPegdZruPI4kEcz9y-2" target="7lHJPegdZruPI4kEcz9y-3" edge="1">
          <mxGeometry relative="1" as="geometry">
            <mxPoint x="212" y="230" as="sourcePoint" />
            <mxPoint x="372" y="230" as="targetPoint" />
          </mxGeometry>
        </mxCell>
        <mxCell id="7lHJPegdZruPI4kEcz9y-9" value="" style="endArrow=none;html=1;rounded=0;exitX=0.5;exitY=0;exitDx=0;exitDy=0;entryX=0.5;entryY=1;entryDx=0;entryDy=0;" parent="1" source="7lHJPegdZruPI4kEcz9y-2" target="7lHJPegdZruPI4kEcz9y-5" edge="1">
          <mxGeometry relative="1" as="geometry">
            <mxPoint x="372" y="152" as="sourcePoint" />
            <mxPoint x="393" y="77" as="targetPoint" />
          </mxGeometry>
        </mxCell>
        <mxCell id="7lHJPegdZruPI4kEcz9y-10" value="" style="endArrow=none;html=1;rounded=0;exitX=0.5;exitY=0;exitDx=0;exitDy=0;entryX=0;entryY=1;entryDx=0;entryDy=0;" parent="1" source="7lHJPegdZruPI4kEcz9y-2" target="7lHJPegdZruPI4kEcz9y-4" edge="1">
          <mxGeometry relative="1" as="geometry">
            <mxPoint x="372" y="152" as="sourcePoint" />
            <mxPoint x="464" y="54" as="targetPoint" />
          </mxGeometry>
        </mxCell>
        <mxCell id="7lHJPegdZruPI4kEcz9y-11" value="" style="endArrow=none;html=1;rounded=0;exitX=0.5;exitY=0;exitDx=0;exitDy=0;entryX=0;entryY=0.5;entryDx=0;entryDy=0;" parent="1" source="7lHJPegdZruPI4kEcz9y-2" target="7lHJPegdZruPI4kEcz9y-6" edge="1">
          <mxGeometry relative="1" as="geometry">
            <mxPoint x="372" y="152" as="sourcePoint" />
            <mxPoint x="495" y="82" as="targetPoint" />
          </mxGeometry>
        </mxCell>
        <mxCell id="7lHJPegdZruPI4kEcz9y-12" value="" style="endArrow=none;html=1;rounded=0;exitX=0.5;exitY=0;exitDx=0;exitDy=0;entryX=0;entryY=0.5;entryDx=0;entryDy=0;" parent="1" source="7lHJPegdZruPI4kEcz9y-2" target="7lHJPegdZruPI4kEcz9y-7" edge="1">
          <mxGeometry relative="1" as="geometry">
            <mxPoint x="372" y="152" as="sourcePoint" />
            <mxPoint x="529" y="127" as="targetPoint" />
          </mxGeometry>
        </mxCell>
        <mxCell id="7lHJPegdZruPI4kEcz9y-13" value="Nombre" style="ellipse;whiteSpace=wrap;html=1;align=center;" parent="1" vertex="1">
          <mxGeometry x="82" y="66" width="100" height="40" as="geometry" />
        </mxCell>
        <mxCell id="7lHJPegdZruPI4kEcz9y-14" value="" style="endArrow=none;html=1;rounded=0;exitX=0.5;exitY=0;exitDx=0;exitDy=0;entryX=0.5;entryY=1;entryDx=0;entryDy=0;" parent="1" source="7lHJPegdZruPI4kEcz9y-1" target="7lHJPegdZruPI4kEcz9y-13" edge="1">
          <mxGeometry relative="1" as="geometry">
            <mxPoint x="372" y="152" as="sourcePoint" />
            <mxPoint x="289" y="86" as="targetPoint" />
          </mxGeometry>
        </mxCell>
        <mxCell id="7lHJPegdZruPI4kEcz9y-15" value="AspNetUsers" style="whiteSpace=wrap;html=1;align=center;" parent="1" vertex="1">
          <mxGeometry x="43" y="379" width="100" height="40" as="geometry" />
        </mxCell>
        <mxCell id="7lHJPegdZruPI4kEcz9y-16" value="OrganizacionModulos" style="whiteSpace=wrap;html=1;align=center;" parent="1" vertex="1">
          <mxGeometry x="160" y="236" width="158" height="40" as="geometry" />
        </mxCell>
        <mxCell id="7lHJPegdZruPI4kEcz9y-17" value="" style="endArrow=none;html=1;rounded=0;exitX=0.5;exitY=1;exitDx=0;exitDy=0;entryX=0;entryY=0.5;entryDx=0;entryDy=0;edgeStyle=orthogonalEdgeStyle;" parent="1" source="7lHJPegdZruPI4kEcz9y-1" target="7lHJPegdZruPI4kEcz9y-16" edge="1">
          <mxGeometry relative="1" as="geometry">
            <mxPoint x="127" y="152" as="sourcePoint" />
            <mxPoint x="142" y="116" as="targetPoint" />
          </mxGeometry>
        </mxCell>
        <mxCell id="7lHJPegdZruPI4kEcz9y-18" value="" style="endArrow=none;html=1;rounded=0;exitX=0.5;exitY=1;exitDx=0;exitDy=0;entryX=1;entryY=0.5;entryDx=0;entryDy=0;edgeStyle=orthogonalEdgeStyle;" parent="1" source="7lHJPegdZruPI4kEcz9y-2" target="7lHJPegdZruPI4kEcz9y-16" edge="1">
          <mxGeometry relative="1" as="geometry">
            <mxPoint x="127" y="192" as="sourcePoint" />
            <mxPoint x="170" y="266" as="targetPoint" />
          </mxGeometry>
        </mxCell>
        <mxCell id="7lHJPegdZruPI4kEcz9y-19" value="AspNetRoles" style="whiteSpace=wrap;html=1;align=center;" parent="1" vertex="1">
          <mxGeometry x="43" y="515" width="100" height="40" as="geometry" />
        </mxCell>
        <mxCell id="7lHJPegdZruPI4kEcz9y-20" value="AspNetUserRoles" style="whiteSpace=wrap;html=1;align=center;" parent="1" vertex="1">
          <mxGeometry x="153" y="447" width="121" height="40" as="geometry" />
        </mxCell>
        <mxCell id="7lHJPegdZruPI4kEcz9y-21" value="AspNetRoleClaims" style="whiteSpace=wrap;html=1;align=center;" parent="1" vertex="1">
          <mxGeometry x="151" y="597" width="123" height="40" as="geometry" />
        </mxCell>
        <mxCell id="7lHJPegdZruPI4kEcz9y-22" value="" style="endArrow=none;html=1;rounded=0;exitX=0.5;exitY=0;exitDx=0;exitDy=0;entryX=1;entryY=0.5;entryDx=0;entryDy=0;edgeStyle=orthogonalEdgeStyle;" parent="1" source="7lHJPegdZruPI4kEcz9y-20" target="7lHJPegdZruPI4kEcz9y-15" edge="1">
          <mxGeometry relative="1" as="geometry">
            <mxPoint x="212" y="498" as="sourcePoint" />
            <mxPoint x="372" y="498" as="targetPoint" />
          </mxGeometry>
        </mxCell>
        <mxCell id="7lHJPegdZruPI4kEcz9y-23" value="" style="endArrow=none;html=1;rounded=0;exitX=1;exitY=0.5;exitDx=0;exitDy=0;entryX=0.5;entryY=1;entryDx=0;entryDy=0;edgeStyle=orthogonalEdgeStyle;" parent="1" source="7lHJPegdZruPI4kEcz9y-19" target="7lHJPegdZruPI4kEcz9y-20" edge="1">
          <mxGeometry relative="1" as="geometry">
            <mxPoint x="212" y="498" as="sourcePoint" />
            <mxPoint x="372" y="498" as="targetPoint" />
          </mxGeometry>
        </mxCell>
        <mxCell id="7lHJPegdZruPI4kEcz9y-24" value="" style="endArrow=none;html=1;rounded=0;exitX=0.5;exitY=1;exitDx=0;exitDy=0;entryX=0;entryY=0.5;entryDx=0;entryDy=0;edgeStyle=orthogonalEdgeStyle;" parent="1" source="7lHJPegdZruPI4kEcz9y-19" target="7lHJPegdZruPI4kEcz9y-21" edge="1">
          <mxGeometry relative="1" as="geometry">
            <mxPoint x="212" y="498" as="sourcePoint" />
            <mxPoint x="372" y="498" as="targetPoint" />
          </mxGeometry>
        </mxCell>
        <mxCell id="K9NDLCsNyoqZcC6Khb1a-1" value="AspNetUsersOrganizacion" style="whiteSpace=wrap;html=1;align=center;" vertex="1" parent="1">
          <mxGeometry x="308" y="326" width="158" height="40" as="geometry" />
        </mxCell>
        <mxCell id="K9NDLCsNyoqZcC6Khb1a-2" value="" style="endArrow=none;html=1;rounded=0;exitX=0;exitY=0.5;exitDx=0;exitDy=0;entryX=0.5;entryY=0;entryDx=0;entryDy=0;edgeStyle=orthogonalEdgeStyle;" edge="1" parent="1" source="K9NDLCsNyoqZcC6Khb1a-1" target="7lHJPegdZruPI4kEcz9y-15">
          <mxGeometry relative="1" as="geometry">
            <mxPoint x="224" y="457" as="sourcePoint" />
            <mxPoint x="153" y="409" as="targetPoint" />
          </mxGeometry>
        </mxCell>
        <mxCell id="K9NDLCsNyoqZcC6Khb1a-3" value="" style="endArrow=none;html=1;rounded=0;entryX=0.5;entryY=0;entryDx=0;entryDy=0;edgeStyle=orthogonalEdgeStyle;exitX=0.75;exitY=1;exitDx=0;exitDy=0;" edge="1" parent="1" source="7lHJPegdZruPI4kEcz9y-2" target="K9NDLCsNyoqZcC6Khb1a-1">
          <mxGeometry relative="1" as="geometry">
            <mxPoint x="408" y="233" as="sourcePoint" />
            <mxPoint x="103" y="389" as="targetPoint" />
          </mxGeometry>
        </mxCell>
        <mxCell id="K9NDLCsNyoqZcC6Khb1a-4" value="&amp;nbsp;- Obras&lt;br&gt;&amp;nbsp;- KeyMeeting" style="shape=note;size=20;whiteSpace=wrap;html=1;align=left;fillColor=#fff2cc;strokeColor=#d6b656;" vertex="1" parent="1">
          <mxGeometry x="-79" y="106" width="100" height="50" as="geometry" />
        </mxCell>
        <mxCell id="K9NDLCsNyoqZcC6Khb1a-6" value="" style="endArrow=none;dashed=1;html=1;dashPattern=1 3;strokeWidth=2;rounded=0;exitX=0;exitY=0.75;exitDx=0;exitDy=0;entryX=0;entryY=0;entryDx=100;entryDy=35;entryPerimeter=0;" edge="1" parent="1" source="7lHJPegdZruPI4kEcz9y-1" target="K9NDLCsNyoqZcC6Khb1a-4">
          <mxGeometry width="50" height="50" relative="1" as="geometry">
            <mxPoint x="292" y="368" as="sourcePoint" />
            <mxPoint x="21" y="152" as="targetPoint" />
          </mxGeometry>
        </mxCell>
        <mxCell id="K9NDLCsNyoqZcC6Khb1a-7" value="&lt;b&gt;Claims&lt;/b&gt;&lt;br&gt;can_read_obras&lt;br&gt;can_create_obra&lt;br&gt;can_edit_obra&lt;br&gt;can_delete_obra&lt;br&gt;can_view_obra" style="shape=note;size=20;whiteSpace=wrap;html=1;align=left;fillColor=#fff2cc;strokeColor=#d6b656;verticalAlign=top;" vertex="1" parent="1">
          <mxGeometry x="-210" y="700" width="178" height="112" as="geometry" />
        </mxCell>
      </root>
    </mxGraphModel>
  </diagram>
</mxfile>
